<svg xmlns="http://www.w3.org/2000/svg" width="24" height="24" viewBox="0 0 24 24" fill="none" xmlns:v="https://vecta.io/nano"><path fill-rule="evenodd" d="M14.013 4.959c-.445-2.212-3.58-2.212-4.025 0a.65.65 0 0 1-1.043.392c-1.791-1.442-4.125.667-3.088 2.603.243.453-.08.981-.556.994-2.253.06-2.761 3.173-.701 3.995a.68.68 0 0 1 .193 1.13c-1.634 1.465-.147 4.243 2.018 3.511a.66.66 0 0 1 .851.737c-.323 2.196 2.599 3.341 3.784 1.383.256-.422.854-.422 1.11 0 1.185 1.957 4.107.812 3.784-1.383a.66.66 0 0 1 .851-.737c2.165.733 3.653-2.045 2.018-3.511a.68.68 0 0 1 .193-1.13c2.06-.822 1.551-3.935-.701-3.995-.476-.013-.798-.541-.556-.994 1.037-1.935-1.297-4.045-3.088-2.603a.65.65 0 0 1-1.043-.392zm-2.653.276c.144-.713 1.137-.713 1.28 0 .303 1.507 2.086 2.179 3.294 1.206.516-.416 1.345.162.976.851-.721 1.346.207 3.013 1.752 3.054.694.019.903 1.023.22 1.296-1.427.57-1.748 2.452-.609 3.473.573.514-.004 1.356-.635 1.142-1.469-.497-2.908.754-2.685 2.267.111.757-.845 1.042-1.201.454-.801-1.322-2.705-1.322-3.505 0-.356.588-1.313.303-1.201-.454.223-1.514-1.216-2.764-2.685-2.267-.631.213-1.208-.628-.635-1.142 1.139-1.021.819-2.903-.608-3.473-.683-.273-.474-1.277.22-1.296 1.545-.042 2.473-1.708 1.752-3.054-.369-.689.46-1.267.976-.851 1.208.973 2.991.3 3.294-1.206zM10.801 9.7a1 1 0 1 0-2 0 1 1 0 1 0 2 0zm3.6 3.6a1 1 0 1 1 0 2 1 1 0 1 1 0-2zm-4.105 1.495l4.6-4.6a.7.7 0 1 0-.99-.99l-4.6 4.6a.7.7 0 1 0 .99.99z" fill="#30363c"/></svg>